<svg xmlns="http://www.w3.org/2000/svg" width="1830.746" height="1881.081" viewBox="0 0 1830.746 1881.081">
  <g id="hell" transform="translate(-3430.291 -4411.43)">
    <path id="Path_174" data-name="Path 174" d="M5232.5,5121.406v216.269c-28.76,27.762-52.493,46.232-70.594,69.112Q5077.6,5513.3,4996.956,5622.708c-92.991,125.41-187.138,249.563-308.509,349.961-245.748,203.342-582.467,220.69-824.894,41.8-121.8-89.872-184.917-213.733-205.766-361.058-54.67-386.508,227.1-896.238,645.341-1056.614,134.05-51.4,268.471-55.938,399.469,7.081,178.072,85.652,242.09,253.692,227.536,437.79-14.61,184.95-108.354,312.706-277.751,386.744-51.215,22.4-101.217,47.488-151.972,70.986-157.447,72.861-297.489,161.127-312.56,358.107-151.23-51.2-186.813-257.485-73.8-423.472-60.394-60.641-84.62-132.423-46.793-215.72,23.711-52.179,59.148-93.216,118.969-115.03,1.638,12.141,3.557,19.514,3.467,26.819-1.515,95.987,34.786,141.019,131.245,148.918,141,11.569,272.05-23.026,391.67-98.983,12.254-7.777,23.4-17.842,33.541-28.3,34.7-35.786,36.593-62.75,6.733-102.406-72.726-96.593-175.693-129.64-289.388-121.751-208.818,14.43-383.456,103.427-520.189,262.983-41.227,48.128-71.132,103.192-80.838,166.907-13.915,91.443,15.62,168.792,82.5,230.756,25.125,23.284,36.829,46.49,38.635,81.77,5.88,114.705,112.719,237.41,224.674,263.994,6.083,1.458,12.8.19,17.012.19,11.793-52.112,22.465-102.473,34.719-152.42,7.35-30.05,21.713-41.957,57.655-32.744,130.83,33.439,256.991,12.344,366.411-64.029,90.119-62.873,172.2-137.9,253.917-211.893,95.595-86.573,187.061-177.747,279.838-267.428,6.98-6.766,14.7-17.393,14.61-26.168-.225-19.312-.124-38.7.123-58.082Z" transform="translate(26.958 17.831)" fill="#fefefe" fill-rule="evenodd"/>
    <path id="Path_175" data-name="Path 175" d="M5259.461,5823.279c-.516,5.173-1.155,10.29-1.975,15.4-37.356,231.957-203.959,401-433.458,443.8-8.786,1.65-16.989,6.621-25.438,10.032H3894.81c-12.568-3.737-24.889-8.876-37.715-11.053-233.393-39.926-420.611-248.6-424.167-483.651-2.02-133.669-2.592-267.36-2.637-401.062v-26.73c.034-142.612.617-285.235.662-427.848,0-34.495.438-69.774,7.373-103.315,49.441-239.306,227.872-398.426,468.615-423.315q31.207-3.248,63.782-3.411c247.913-1.279,495.838-.494,743.74-.011,27.347.044,55,.4,82.141,3.434q10.739,1.145,21.388,2.962c226.4,38.444,397.651,200.291,432.482,427.938a911.294,911.294,0,0,1,9.011,94.473c3.075,65.667.763,132.12,0,198.3-.247,19.391-.348,38.781-.123,58.082.09,8.775-7.63,19.4-14.61,26.168-92.778,89.681-184.243,180.854-279.838,267.427-81.7,73.994-163.8,149.02-253.917,211.893-109.431,76.373-235.581,97.469-366.411,64.029-35.941-9.212-50.306,2.693-57.655,32.745-12.253,49.946-22.925,100.308-34.719,152.419-4.208,0-10.93,1.28-17.012-.19-111.955-26.6-218.794-149.289-224.674-263.993-1.807-35.28-13.5-58.5-38.635-81.771-66.88-61.965-96.414-139.313-82.5-230.756,9.706-63.715,39.612-118.778,80.838-166.907,136.744-159.556,311.371-248.553,520.188-262.983,113.706-7.889,216.673,25.158,289.387,121.751,29.86,39.667,27.964,66.622-6.732,102.406-10.133,10.458-21.288,20.523-33.541,28.3-119.608,75.957-250.674,110.553-391.67,98.984-96.459-7.9-132.76-52.931-131.245-148.919.1-7.316-1.829-14.678-3.468-26.819-59.821,21.814-95.257,62.851-118.968,115.03-37.816,83.285-13.6,155.08,46.793,215.72-113.01,165.986-77.427,372.269,73.8,423.471,15.07-196.968,155.1-285.247,312.56-358.106,50.766-23.5,100.756-48.6,151.971-70.986,169.4-74.05,263.141-201.794,277.75-386.744,14.555-184.1-49.463-352.138-227.535-437.79-131-63.008-265.418-58.474-399.469-7.081-418.242,160.376-700.011,670.106-645.34,1056.615,20.849,147.325,83.969,271.187,205.766,361.058,242.426,178.891,579.146,161.543,824.893-41.8,121.371-100.4,215.518-224.551,308.509-349.96q80.911-109.105,164.955-215.921c18.1-22.88,41.833-41.351,70.593-69.112.168-.157.359-.326.528-.494,0,130.011.134,246.96-.078,363.942-.079,34.741,2.917,70.055-.449,104.325Z" transform="translate(0 0)" fill="#ef7f1a" fill-rule="evenodd"/>
  </g>
</svg>
