<svg xmlns="http://www.w3.org/2000/svg" width="20.607" height="20.607" viewBox="0 0 20.607 20.607">
  <g id="vuesax_linear_maximize-3" data-name="vuesax/linear/maximize-3" transform="translate(-748 -316)">
    <g id="maximize-3" transform="translate(748 316)">
      <path id="Vector" d="M6.01,17.173h5.152c4.293,0,6.01-1.717,6.01-6.01V6.01c0-4.293-1.717-6.01-6.01-6.01H6.01C1.717,0,0,1.717,0,6.01v5.152C0,15.456,1.717,17.173,6.01,17.173Z" transform="translate(1.717 1.717)" fill="none" stroke="#fff" stroke-linecap="round" stroke-linejoin="round" stroke-width="1"/>
      <path id="Vector-2" data-name="Vector" d="M10.3,0,0,10.3" transform="translate(5.152 5.152)" fill="none" stroke="#fff" stroke-linecap="round" stroke-linejoin="round" stroke-width="1"/>
      <path id="Vector-3" data-name="Vector" d="M3.435,3.435V0H0" transform="translate(12.021 5.152)" fill="none" stroke="#fff" stroke-linecap="round" stroke-linejoin="round" stroke-width="1"/>
      <path id="Vector-4" data-name="Vector" d="M0,0V3.435H3.435" transform="translate(5.152 12.021)" fill="none" stroke="#fff" stroke-linecap="round" stroke-linejoin="round" stroke-width="1"/>
      <path id="Vector-5" data-name="Vector" d="M0,0H20.607V20.607H0Z" fill="none" opacity="0"/>
    </g>
  </g>
</svg>
