<svg xmlns="http://www.w3.org/2000/svg" width="30.952" height="30.952" viewBox="0 0 30.952 30.952">
  <g id="vuesax_linear_music" data-name="vuesax/linear/music" transform="translate(-748 -318)">
    <g id="music" transform="translate(748 318)">
      <path id="Vector" d="M8.048,4.024A4.024,4.024,0,1,1,4.024,0,4.024,4.024,0,0,1,8.048,4.024Z" transform="translate(4.075 20.325)" fill="none" stroke="#000" stroke-linecap="round" stroke-linejoin="round" stroke-width="2"/>
      <path id="Vector-2" data-name="Vector" d="M14.754,19.183V3.449c0-3.353-2.1-3.817-4.23-3.237L2.476,2.4A3.212,3.212,0,0,0,0,5.642V21.853" transform="translate(12.123 2.483)" fill="none" stroke="#000" stroke-linecap="round" stroke-linejoin="round" stroke-width="2"/>
      <path id="Vector-3" data-name="Vector" d="M8.048,4.024A4.024,4.024,0,1,1,4.024,0,4.024,4.024,0,0,1,8.048,4.024Z" transform="translate(18.829 17.643)" fill="none" stroke="#000" stroke-linecap="round" stroke-linejoin="round" stroke-width="2"/>
      <path id="Vector-4" data-name="Vector" d="M0,4.024,14.754,0" transform="translate(12.123 8.254)" fill="none" stroke="#000" stroke-linecap="round" stroke-linejoin="round" stroke-width="2"/>
      <path id="Vector-5" data-name="Vector" d="M0,0H30.952V30.952H0Z" fill="none" opacity="0"/>
    </g>
  </g>
</svg>
