<svg xmlns="http://www.w3.org/2000/svg" width="30.392" height="30.392" viewBox="0 0 30.392 30.392">
  <g id="profile" transform="translate(-492 -252)">
    <g id="profile-circle" transform="translate(492 252)">
      <path id="Vector" d="M4.305,8.294a1.219,1.219,0,0,0-.3,0,4.154,4.154,0,1,1,.3,0Z" transform="translate(11.042 7.889)" fill="none" stroke="#707070" stroke-linecap="round" stroke-linejoin="round" stroke-width="1.5"/>
      <path id="Vector-2" data-name="Vector" d="M17.07,5A12.58,12.58,0,0,1,8.535,8.313,12.58,12.58,0,0,1,0,5,4.659,4.659,0,0,1,2.241,1.729a12.322,12.322,0,0,1,12.587,0A4.659,4.659,0,0,1,17.07,5Z" transform="translate(6.661 19.546)" fill="none" stroke="#707070" stroke-linecap="round" stroke-linejoin="round" stroke-width="1.5"/>
      <path id="Vector-3" data-name="Vector" d="M25.326,12.663A12.663,12.663,0,1,1,12.663,0,12.663,12.663,0,0,1,25.326,12.663Z" transform="translate(2.533 2.533)" fill="none" stroke="#707070" stroke-linecap="round" stroke-linejoin="round" stroke-width="1.5"/>
      <path id="Vector-4" data-name="Vector" d="M0,0H30.392V30.392H0Z" transform="translate(30.392 30.392) rotate(180)" fill="none" opacity="0"/>
    </g>
  </g>
</svg>
