<svg xmlns="http://www.w3.org/2000/svg" width="30.392" height="30.392" viewBox="0 0 30.392 30.392">
  <g id="setting" transform="translate(-300 -188)">
    <g id="setting-2" transform="translate(300 188)">
      <path id="Vector" d="M7.6,3.8A3.8,3.8,0,1,1,3.8,0,3.8,3.8,0,0,1,7.6,3.8Z" transform="translate(11.397 11.397)" fill="none" stroke="#707070" stroke-linecap="round" stroke-linejoin="round" stroke-width="1.5"/>
      <path id="Vector-2" data-name="Vector" d="M0,13.067V10.838A2.413,2.413,0,0,1,2.406,8.432c2.292,0,3.229-1.621,2.077-3.609a2.4,2.4,0,0,1,.886-3.28L7.56.29a2.113,2.113,0,0,1,2.887.76l.139.241c1.14,1.988,3.014,1.988,4.166,0l.139-.241A2.113,2.113,0,0,1,17.779.29L19.97,1.544a2.4,2.4,0,0,1,.886,3.28c-1.152,1.988-.215,3.609,2.077,3.609a2.413,2.413,0,0,1,2.406,2.406v2.229a2.413,2.413,0,0,1-2.406,2.406c-2.292,0-3.229,1.621-2.077,3.609a2.4,2.4,0,0,1-.886,3.28l-2.191,1.254a2.113,2.113,0,0,1-2.887-.76l-.139-.241c-1.14-1.988-3.014-1.988-4.166,0l-.139.241a2.113,2.113,0,0,1-2.887.76L5.369,22.362a2.4,2.4,0,0,1-.886-3.28c1.152-1.988.215-3.609-2.077-3.609A2.413,2.413,0,0,1,0,13.067Z" transform="translate(2.533 3.243)" fill="none" stroke="#707070" stroke-linecap="round" stroke-linejoin="round" stroke-width="1.5"/>
      <path id="Vector-3" data-name="Vector" d="M0,0H30.392V30.392H0Z" fill="none" opacity="0"/>
    </g>
  </g>
</svg>
