<svg xmlns="http://www.w3.org/2000/svg" width="24" height="24" viewBox="0 0 24 24">
  <g id="trush-square" transform="translate(-364 -572)">
    <path id="Vector" d="M7,20h6c5,0,7-2,7-7V7c0-5-2-7-7-7H7C2,0,0,2,0,7v6C0,18,2,20,7,20Z" transform="translate(366 574)" fill="none" stroke="#707070" stroke-linecap="round" stroke-linejoin="round" stroke-width="1.5"/>
    <g id="Group">
      <path id="Vector-2" data-name="Vector" d="M11.8.33A65.541,65.541,0,0,0,5.23,0,38.825,38.825,0,0,0,1.34.2L0,.33" transform="translate(370.1 580.72)" fill="none" stroke="#707070" stroke-linecap="round" stroke-linejoin="round" stroke-width="1.5"/>
      <path id="Vector-3" data-name="Vector" d="M0,1.95l.14-.86C.24.47.32,0,1.43,0H3.15C4.26,0,4.34.49,4.44,1.09l.14.85" transform="translate(373.71 578.44)" fill="none" stroke="#707070" stroke-linecap="round" stroke-linejoin="round" stroke-width="1.5"/>
      <path id="Vector-4" data-name="Vector" d="M8.99,0,8.56,6.6C8.49,7.63,8.43,8.43,6.6,8.43H2.39C.56,8.43.5,7.63.43,6.6L0,0" transform="translate(371.5 581.13)" fill="none" stroke="#707070" stroke-linecap="round" stroke-linejoin="round" stroke-width="1.5"/>
    </g>
    <path id="Vector-5" data-name="Vector" d="M0,0H24V24H0Z" transform="translate(364 572)" fill="none" opacity="0"/>
  </g>
</svg>
