<svg id="trash" xmlns="http://www.w3.org/2000/svg" width="30.755" height="30.755" viewBox="0 0 30.755 30.755">
  <path id="Vector" d="M23.066.641C18.8.218,14.506,0,10.226,0A75.694,75.694,0,0,0,2.614.384L0,.641" transform="translate(3.844 7.022)" fill="none" stroke="#d40000" stroke-linecap="round" stroke-linejoin="round" stroke-width="1.5"/>
  <path id="Vector-2" data-name="Vector" d="M0,3.806.282,2.127C.487.91.641,0,2.806,0H6.164C8.33,0,8.5.961,8.688,2.14L8.97,3.806" transform="translate(10.892 2.563)" fill="none" stroke="#d40000" stroke-linecap="round" stroke-linejoin="round" stroke-width="1.5"/>
  <path id="Vector-3" data-name="Vector" d="M17.556,0l-.833,12.9c-.141,2.012-.256,3.575-3.832,3.575H4.665C1.089,16.48.974,14.916.833,12.9L0,0" transform="translate(6.6 11.713)" fill="none" stroke="#d40000" stroke-linecap="round" stroke-linejoin="round" stroke-width="1.5"/>
  <path id="Vector-4" data-name="Vector" d="M0,0H4.267" transform="translate(13.238 21.144)" fill="none" stroke="#d40000" stroke-linecap="round" stroke-linejoin="round" stroke-width="1.5"/>
  <path id="Vector-5" data-name="Vector" d="M0,0H6.407" transform="translate(12.174 16.018)" fill="none" stroke="#d40000" stroke-linecap="round" stroke-linejoin="round" stroke-width="1.5"/>
  <path id="Vector-6" data-name="Vector" d="M0,0H30.755V30.755H0Z" fill="none" opacity="0"/>
</svg>
