<svg xmlns="http://www.w3.org/2000/svg" width="30.33" height="30.33" viewBox="0 0 30.33 30.33">
  <g id="Group_346" data-name="Group 346" transform="translate(-1285 -4216)">
    <path id="Vector" d="M25.275,16.429V8.846C25.275,2.528,22.748,0,16.429,0H8.846C2.528,0,0,2.528,0,8.846v7.583c0,6.319,2.528,8.846,8.846,8.846h7.583C22.748,25.275,25.275,22.748,25.275,16.429Z" transform="translate(1287.527 4218.527)" fill="none" stroke="#000" stroke-linecap="round" stroke-linejoin="round" stroke-width="2"/>
    <path id="Vector-2" data-name="Vector" d="M0,0H23.961" transform="translate(1288.185 4224.985)" fill="none" stroke="#000" stroke-linecap="round" stroke-linejoin="round" stroke-width="2"/>
    <path id="Vector-3" data-name="Vector" d="M0,0V6.142" transform="translate(1295.767 4218.667)" fill="none" stroke="#000" stroke-linecap="round" stroke-linejoin="round" stroke-width="2"/>
    <path id="Vector-4" data-name="Vector" d="M0,0V5.573" transform="translate(1304.563 4218.667)" fill="none" stroke="#000" stroke-linecap="round" stroke-linejoin="round" stroke-width="2"/>
    <path id="Vector-5" data-name="Vector" d="M0,3.7V2.185C0,.238,1.377-.558,3.058.415l1.314.758,1.314.758c1.681.973,1.681,2.565,0,3.539l-1.314.758-1.314.758C1.377,7.96,0,7.164,0,5.218V3.7Z" transform="translate(1297.322 4230.561)" fill="none" stroke="#000" stroke-linecap="round" stroke-linejoin="round" stroke-width="2"/>
    <path id="Vector-6" data-name="Vector" d="M0,0H30.33V30.33H0Z" transform="translate(1285 4216)" fill="none" opacity="0"/>
  </g>
</svg>
