<svg xmlns="http://www.w3.org/2000/svg" width="24" height="24" viewBox="0 0 24 24">
  <g id="vuesax_linear_microscope" data-name="vuesax/linear/microscope" transform="translate(-300 -380)">
    <g id="microscope">
      <g id="Group">
        <path id="Vector" d="M3.2,8.77,8.86,4.98A1.241,1.241,0,0,0,9.2,3.26L7.38.55A1.241,1.241,0,0,0,5.66.21L0,4Z" transform="translate(311.83 382)" fill="none" stroke="#292d32" stroke-linecap="round" stroke-linejoin="round" stroke-width="1.5"/>
        <path id="Vector-2" data-name="Vector" d="M0,0H5.75V4.6H0Z" transform="matrix(0.831, -0.557, 0.557, 0.831, 307.396, 389.679)" fill="none" stroke="#292d32" stroke-linecap="round" stroke-linejoin="round" stroke-width="1.5"/>
        <path id="Vector-3" data-name="Vector" d="M2.682,5.98l3.95-2.64L4.392,0,.442,2.64a1,1,0,0,0-.27,1.39L1.3,5.71A1,1,0,0,0,2.682,5.98Z" transform="translate(303.148 389.92)" fill="none" stroke="#292d32" stroke-linecap="round" stroke-linejoin="round" stroke-width="1.5"/>
      </g>
      <path id="Vector-4" data-name="Vector" d="M4.49,0,0,9.8" transform="translate(307.56 392.2)" fill="none" stroke="#292d32" stroke-linecap="round" stroke-linejoin="round" stroke-width="1.5"/>
      <path id="Vector-5" data-name="Vector" d="M0,0,4.44,9.8" transform="translate(312 392.2)" fill="none" stroke="#292d32" stroke-linecap="round" stroke-linejoin="round" stroke-width="1.5"/>
      <path id="Vector-6" data-name="Vector" d="M0,0H24V24H0Z" transform="translate(300 380)" fill="none" opacity="0"/>
    </g>
  </g>
</svg>
