<svg xmlns="http://www.w3.org/2000/svg" width="32" height="32" viewBox="0 0 32 32">
  <g id="Group_43" data-name="Group 43" transform="translate(-274 -884)">
    <g id="Ellipse_22" data-name="Ellipse 22" transform="translate(274 884)" fill="#aeb8bf" stroke="#aeb8bf" stroke-width="1">
      <circle cx="16" cy="16" r="16" stroke="none"/>
      <circle cx="16" cy="16" r="15.5" fill="none"/>
    </g>
    <g id="Group_38" data-name="Group 38" transform="translate(-0.149 0.843)">
      <path id="Vector" d="M6.446,1.328C4.7-.42,2.987-.465,1.194,1.328L.1,2.418a.375.375,0,0,0-.09.36A7.323,7.323,0,0,0,5,7.76a.452.452,0,0,0,.108.018.361.361,0,0,0,.261-.108l1.081-1.09a3.723,3.723,0,0,0,1.324-2.6A3.709,3.709,0,0,0,6.446,1.328Z" transform="translate(290.035 891.503)" fill="#fff"/>
      <path id="Vector-2" data-name="Vector" d="M10.915,4.937c-.261-.126-.513-.252-.757-.4-.2-.117-.387-.243-.577-.378a5.439,5.439,0,0,1-.5-.387,1.1,1.1,0,0,1-.153-.135A7.619,7.619,0,0,1,8,2.7a1.1,1.1,0,0,1-.135-.162,5.24,5.24,0,0,1-.378-.5,4.946,4.946,0,0,1-.351-.531c-.144-.243-.27-.486-.4-.739C6.609.5,6.51.243,6.419,0L.762,5.657a1.084,1.084,0,0,0-.252.5L.024,9.6a1.847,1.847,0,0,0,.459,1.576,1.793,1.793,0,0,0,1.261.486,1.969,1.969,0,0,0,.324-.027l3.459-.486a1,1,0,0,0,.5-.252L11.68,5.243C11.428,5.153,11.185,5.054,10.915,4.937Z" transform="translate(282.494 895.146)" fill="#fff"/>
    </g>
  </g>
</svg>
