<svg xmlns="http://www.w3.org/2000/svg" width="22" height="22" viewBox="0 0 22 22">
  <g id="Group_52" data-name="Group 52" transform="translate(-2092.96 -6536.96)">
    <g id="Path_2" data-name="Path 2" transform="translate(2092.96 6536.96)" fill="none" stroke-linecap="round">
      <path d="M11,0A11,11,0,1,1,0,11,11,11,0,0,1,11,0Z" stroke="none"/>
      <path d="M 11 1.5 C 5.761680603027344 1.5 1.5 5.761680603027344 1.5 11 C 1.5 16.23831939697266 5.761680603027344 20.5 11 20.5 C 16.23831939697266 20.5 20.5 16.23831939697266 20.5 11 C 20.5 5.761680603027344 16.23831939697266 1.5 11 1.5 M 11 0 C 17.07513046264648 0 22 4.924869537353516 22 11 C 22 17.07513046264648 17.07513046264648 22 11 22 C 4.924869537353516 22 0 17.07513046264648 0 11 C 0 4.924869537353516 4.924869537353516 0 11 0 Z" stroke="none" fill="#959899"/>
    </g>
    <path id="Path_1" data-name="Path 1" d="M10.371,13.217a5.486,5.486,0,0,1-4.217,1.91,5.71,5.71,0,0,1-4.336-2.049" transform="translate(2097.52 6537.714)" fill="none" stroke="#959899" stroke-linecap="round" stroke-width="1.5"/>
    <g id="Group_41" data-name="Group 41" transform="translate(2098.992 6544.352)">
      <g id="Ellipse_25" data-name="Ellipse 25" fill="#959899" stroke="#fff" stroke-linecap="round" stroke-width="0.5">
        <circle cx="2.129" cy="2.129" r="2.129" stroke="none"/>
        <circle cx="2.129" cy="2.129" r="1.879" fill="none"/>
      </g>
      <g id="Ellipse_26" data-name="Ellipse 26" transform="translate(5.677)" fill="#959899" stroke="#fff" stroke-linecap="round" stroke-width="0.5">
        <circle cx="2.129" cy="2.129" r="2.129" stroke="none"/>
        <circle cx="2.129" cy="2.129" r="1.879" fill="none"/>
      </g>
    </g>
  </g>
</svg>
